<?xml version="1.0" encoding="UTF-8"?>
<svg version="1.1" xmlns="http://www.w3.org/2000/svg" viewBox="291 127 540 540" width="100%" height="100%">
<path d="M0 0 C3.2521579 2.12057255 5.55233467 4.61158849 7.94921875 7.61328125 C8.4198877 8.1858667 8.89055664 8.75845215 9.37548828 9.34838867 C13.14848298 13.96393939 16.83134347 18.65396346 20.49487305 23.35668945 C24.02506963 27.88697348 27.62911195 32.35232057 31.26171875 36.80078125 C35.29392755 41.74013361 39.27947559 46.709245 43.19921875 51.73828125 C52.6185643 63.80162324 62.45205958 75.5401825 72.38330078 87.18408203 C73.84367162 88.89690097 75.30064953 90.61257656 76.7578125 92.328125 C82.1896878 98.70817556 87.71607587 104.97016585 93.38671875 111.140625 C95.83133899 113.8787605 98.14689488 116.69232172 100.44921875 119.55078125 C103.48507935 123.31226055 106.61961783 126.7779221 110.08984375 130.13671875 C112.48920203 132.52486507 114.67559274 135.079075 116.88671875 137.640625 C119.69877628 140.88034961 122.57884575 144.05769935 125.453125 147.2421875 C126.94291155 148.89330458 128.43008752 150.54678269 129.9140625 152.203125 C134.66864951 157.50797163 139.4804007 162.75617612 144.31958008 167.98364258 C147.32538647 171.23407985 150.30708429 174.50358048 153.26171875 177.80078125 C156.62992584 181.55599957 160.02825295 185.2812125 163.44921875 188.98828125 C164.19051025 189.7925354 164.19051025 189.7925354 164.94677734 190.61303711 C167.80126922 193.70275942 170.67604252 196.77170826 173.5703125 199.82421875 C174.20557861 200.49686768 174.84084473 201.1695166 175.49536133 201.86254883 C176.73212221 203.17083015 177.97269924 204.47551717 179.2175293 205.77612305 C179.78125244 206.37336182 180.34497559 206.97060059 180.92578125 207.5859375 C181.67529053 208.37303101 181.67529053 208.37303101 182.43994141 209.17602539 C183.88053499 210.94683261 184.81472665 212.73004393 185.76171875 214.80078125 C195.19411061 207.92621912 204.57873497 201.00641094 213.76171875 193.80078125 C219.79253462 189.07109165 225.88932414 184.45215663 232.07421875 179.92578125 C242.41212953 172.35881305 252.58945976 164.58833484 262.76171875 156.80078125 C273.82934561 148.32776288 284.92525344 139.9068133 296.16503906 131.66308594 C302.13813415 127.27679038 308.02132707 122.79011736 313.88085938 118.25292969 C325.52906477 109.259741 337.26208284 100.38663701 349.13232422 91.6887207 C353.8034613 88.26094061 358.42977504 84.7843131 363.01171875 81.23828125 C364.0275 80.45710938 365.04328125 79.6759375 366.08984375 78.87109375 C367.71659422 77.61059996 369.33392802 76.33766224 370.93359375 75.04296875 C375.15517085 71.74147897 375.15517085 71.74147897 378.0390625 72.0234375 C391.52989082 75.8751948 391.52989082 75.8751948 394.74804688 81.53564453 C396.90887903 87.09710746 397.76171875 92.84914718 397.76171875 98.80078125 C396.43920898 100.2578125 396.43920898 100.2578125 394.5703125 101.61328125 C393.88066406 102.12503906 393.19101562 102.63679688 392.48046875 103.1640625 C391.35125 103.97423828 391.35125 103.97423828 390.19921875 104.80078125 C388.6238384 105.9658789 387.04964075 107.13257724 385.4765625 108.30078125 C384.6810498 108.88730469 383.88553711 109.47382813 383.06591797 110.078125 C379.73111595 112.57127641 376.49461593 115.17769122 373.26171875 117.80078125 C367.99166813 122.05333642 362.65331885 126.20353029 357.26171875 130.30078125 C351.15133482 134.94447923 345.12427743 139.67680744 339.14672852 144.48999023 C334.67774056 148.08338252 330.15669627 151.60074991 325.60229492 155.08496094 C319.86597305 159.47635321 314.19282073 163.94673756 308.51904297 168.41845703 C306.79150973 169.77734744 305.0604641 171.13161834 303.328125 172.484375 C295.62602123 178.50420884 288.0161862 184.62941074 280.44140625 190.80859375 C277.52585333 193.18516177 274.58806648 195.53123271 271.63671875 197.86328125 C262.96624316 204.79087408 254.38468479 211.89199579 246.67529297 219.88842773 C244.90000769 221.66258052 243.0737962 223.28808489 241.16015625 224.91015625 C236.12337211 229.28377737 231.45301352 234.0001456 226.76171875 238.73828125 C225.45654297 240.05022461 225.45654297 240.05022461 224.125 241.38867188 C222.00158326 243.52375574 219.88055497 245.6611533 217.76171875 247.80078125 C222.77071649 253.81001567 228.17113734 259.27733745 233.75195312 264.75195312 C234.42419922 265.41646484 235.09644531 266.08097656 235.7890625 266.765625 C236.38452881 267.34948975 236.97999512 267.93335449 237.59350586 268.53491211 C239.35635222 270.37715702 240.99852271 272.24747283 242.64868164 274.18774414 C247.67694623 279.96618179 253.15374695 285.30348141 258.58482361 290.6990509 C260.58083399 292.68215159 262.57357581 294.66848699 264.56555176 296.65563965 C268.7947898 300.87351975 273.02795278 305.08744677 277.26171875 309.30078125 C282.17268665 314.18804958 287.08197766 319.07697839 291.98704529 323.97016907 C293.93856126 325.9152617 295.8930926 327.85728791 297.84777832 329.79919434 C303.18234612 335.1119426 308.4550174 340.40780007 313.33682251 346.14657593 C315.57930521 348.7499422 317.98569342 351.15458438 320.4140625 353.5859375 C320.91788956 354.09072128 321.42171661 354.59550507 321.94081116 355.11558533 C322.99406399 356.16951087 324.0485492 357.22220624 325.10424805 358.27368164 C326.69630841 359.86038071 328.28294865 361.45235867 329.86914062 363.04492188 C334.74904379 367.92801654 339.66715466 372.7135248 344.91772461 377.2019043 C348.23941154 380.08204831 351.39004338 383.14557119 354.57421875 386.17578125 C359.95767614 391.26469918 365.41305038 396.09839619 371.2109375 400.7109375 C373.87472473 402.89336655 376.37412836 405.19640495 378.88671875 407.55078125 C388.92579361 416.76394641 400.10237185 424.64835184 411.13671875 432.61328125 C412.26509155 433.42792847 412.26509155 433.42792847 413.41625977 434.2590332 C416.68096528 436.60877104 419.95301711 438.94261653 423.26953125 441.21875 C424.75066406 442.24935547 424.75066406 442.24935547 426.26171875 443.30078125 C427.09703125 443.86796875 427.93234375 444.43515625 428.79296875 445.01953125 C431.66957491 447.62217492 432.62245514 449.91887799 432.90917969 453.79345703 C432.95839222 456.07079231 432.93634887 458.33602234 432.88671875 460.61328125 C432.87769531 461.40154297 432.86867188 462.18980469 432.859375 463.00195312 C432.83594379 464.93502791 432.80007713 466.86794505 432.76171875 468.80078125 C430.56459746 470.03478088 428.35807974 471.23688382 426.13671875 472.42578125 C425.51925781 472.77640625 424.90179687 473.12703125 424.265625 473.48828125 C421.22076554 475.09083886 419.29897433 475.89141141 415.8671875 475.3125 C411.74736423 473.30700112 407.70283765 471.21722134 403.69921875 468.98828125 C402.82797363 468.50472168 401.95672852 468.02116211 401.05908203 467.52294922 C380.45203055 455.97224184 360.76396371 443.14182478 342.76171875 427.80078125 C341.65505712 426.86835996 340.54827945 425.93607638 339.44140625 425.00390625 C332.34477334 418.99860924 325.45101101 412.80792526 318.6484375 406.47265625 C316.36078166 404.35525896 314.05515838 402.2784764 311.69921875 400.23828125 C306.82410207 396.01589986 302.09324133 391.63631674 297.3515625 387.265625 C295.80230496 385.8381764 294.25096157 384.41302721 292.69921875 382.98828125 C289.3777619 379.93541005 286.06777946 376.87031224 282.76171875 373.80078125 C281.80072266 372.90963623 281.80072266 372.90963623 280.8203125 372.00048828 C271.6899033 363.51879553 262.74034936 354.88912093 254.0012207 346.00341797 C253.302146 345.29588379 252.60307129 344.58834961 251.8828125 343.859375 C250.97680298 342.93596313 250.97680298 342.93596313 250.05249023 341.99389648 C248.17478485 340.19623823 246.26642418 338.51448048 244.29125977 336.828125 C238.29992988 331.61610239 232.7668873 325.92947672 227.16796875 320.3046875 C225.96892921 319.10377922 224.76966598 317.90309425 223.57019043 316.70262146 C220.43791667 313.5665584 217.30865965 310.42750236 214.18005371 307.28778076 C210.97734605 304.07478124 207.77174967 300.86466654 204.56640625 297.65429688 C198.29537086 291.37258754 192.02752352 285.08770767 185.76171875 278.80078125 C182.50611048 280.22930489 180.34317072 281.97102487 177.83862305 284.48095703 C177.08070969 285.23579376 176.32279633 285.99063049 175.54191589 286.76834106 C174.73144302 287.58599945 173.92097015 288.40365784 173.0859375 289.24609375 C172.24255325 290.08993622 171.39916901 290.93377869 170.53022766 291.80319214 C168.74507553 293.59136563 166.96235477 295.38196919 165.18188477 297.17480469 C162.4752305 299.89959521 159.76078111 302.61641871 157.04492188 305.33203125 C155.3081235 307.07374996 153.57178081 308.8159232 151.8359375 310.55859375 C151.03153732 311.36410675 150.22713715 312.16961975 149.39836121 312.99954224 C145.19399481 317.23886341 141.13383582 321.54963993 137.24479675 326.08082581 C135.02506038 328.65509881 132.70352364 331.12602075 130.38671875 333.61328125 C126.17094485 338.18162883 122.15680449 342.86673533 118.2578125 347.7109375 C116.37073852 350.04689293 114.46831147 352.36446822 112.546875 354.671875 C104.35280185 364.52038804 96.41688229 374.52729622 88.76171875 384.80078125 C88.22691895 385.5184668 87.69211914 386.23615234 87.14111328 386.97558594 C75.41120885 402.79633418 64.81660162 419.25953703 54.63671875 436.11328125 C53.99686035 437.169104 53.35700195 438.22492676 52.69775391 439.31274414 C47.68279885 447.6914214 44.56239338 454.88407749 42.703125 464.51953125 C41.58820573 468.40555692 40.49349757 471.75621846 37.76171875 474.80078125 C35.12235784 476.24043266 32.43779091 476.85930091 29.51171875 477.48828125 C28.71612549 477.68123779 27.92053223 477.87419434 27.10083008 478.07299805 C25.45791209 478.4703178 23.81241007 478.8570977 22.16455078 479.23339844 C19.91486548 479.76461858 17.69895649 480.36142082 15.4765625 480.99609375 C5.05315534 483.93224718 -6.149329 486.47307241 -16.23828125 481.1875 C-22.90120456 476.56769966 -26.55520572 470.65944932 -28.23828125 462.80078125 C-31.72492241 441.8040231 -31.72492241 441.8040231 -27.6171875 433.5390625 C-25.31845309 430.73222994 -22.88010204 428.28630384 -20.23828125 425.80078125 C-18.81286747 424.27994019 -17.4193243 422.73367399 -16.02636719 421.18310547 C-14.63092887 419.63288633 -13.21717194 418.1016609 -11.796875 416.57421875 C-9.15817146 413.71394468 -6.59565771 410.79933779 -4.046875 407.859375 C-1.03471771 404.4308504 2.05480639 401.07280396 5.13671875 397.70703125 C7.15798205 395.46920402 9.14766699 393.21363246 11.125 390.9375 C14.64193211 386.90742459 18.27538051 383.00011671 21.94921875 379.11328125 C26.67087123 374.10193889 31.36314108 369.06742516 36.01171875 363.98828125 C40.56594052 359.0199009 45.26869827 354.23661052 50.09375 349.53125 C52.10644442 347.47140608 53.97593516 345.40859852 55.84277344 343.22412109 C60.07054057 338.37611402 64.58035916 333.83830007 69.1328125 329.296875 C70.45455223 327.97370018 70.45455223 327.97370018 71.80299377 326.62379456 C74.12748625 324.29845316 76.45437782 321.97554507 78.78210449 319.65344238 C80.19816553 318.23933301 81.61226196 316.82329004 83.02563477 315.40649414 C85.76700131 312.65891405 88.51184909 309.91486019 91.2578125 307.171875 C92.09138779 306.33627548 92.92496307 305.50067596 93.78379822 304.63975525 C98.07596 300.36455521 102.43211512 296.23514014 107.04066467 292.301651 C109.75247862 289.93677498 112.25130939 287.37553823 114.76171875 284.80078125 C118.53630343 280.97979978 122.35474637 277.31233277 126.44921875 273.83203125 C130.40787365 270.35483438 134.20113083 266.6973303 138.02880859 263.07714844 C142.77216228 258.62809477 147.67258132 254.56616209 152.8828125 250.66796875 C153.50285156 250.05179688 154.12289062 249.435625 154.76171875 248.80078125 C154.76171875 244.27903648 153.94154577 243.50220712 150.91500717 240.39578557 C150.05693786 239.54598469 150.05693786 239.54598469 149.18153381 238.67901611 C148.58099558 238.06871009 147.98045734 237.45840406 147.36172098 236.82960391 C145.33798498 234.77811042 143.30011215 232.74126899 141.26196289 230.70410156 C139.81093207 229.23947002 138.36072039 227.77402655 136.91127014 226.30783081 C132.96151131 222.31835996 128.9986774 218.3421275 125.03219151 214.36929417 C122.55144104 211.8834816 120.07343447 209.3949673 117.5963726 206.90547943 C108.94427999 198.21033306 100.28130388 189.52619194 91.60864258 180.8515625 C83.54436387 172.78485733 75.50460856 164.69427621 67.47602755 156.59205556 C60.57218381 149.62715136 53.65089654 142.67990243 46.71616644 135.74575114 C42.57957315 131.60887572 38.45023936 127.46535898 34.33851814 123.30374908 C30.46047738 119.37982087 26.56097533 115.478509 22.64476585 111.5926857 C21.22014726 110.17194091 19.80300255 108.74365052 18.39452362 107.30690384 C10.06259014 98.81848995 2.38744343 92.87427222 -8.68389225 88.37459946 C-13.23871196 86.35780889 -15.90276289 83.99572132 -18.73828125 79.98828125 C-19.20927246 79.385 -19.68026367 78.78171875 -20.16552734 78.16015625 C-21.10724441 76.95179499 -22.03673428 75.73377856 -22.95214844 74.50537109 C-24.8258095 72.02209441 -26.8519306 69.67305371 -28.86328125 67.30078125 C-33.53116858 61.56352337 -37.84843034 55.57511354 -42.03320312 49.47851562 C-43.22754266 47.76856993 -43.22754266 47.76856993 -44.64648438 46.13867188 C-48.56458083 41.34988732 -48.82790096 37.85052514 -48.23828125 31.80078125 C-48.1815625 30.96724121 -48.12484375 30.13370117 -48.06640625 29.27490234 C-47.86164163 26.66661458 -47.5610938 24.08439421 -47.23828125 21.48828125 C-47.16222656 20.60849609 -47.08617187 19.72871094 -47.0078125 18.82226562 C-46.21312095 12.66574344 -46.21312095 12.66574344 -43.76538086 10.49389648 C-41.63624355 9.39619436 -39.49566318 8.60338132 -37.23828125 7.80078125 C-35.25790774 6.93540653 -33.28022256 6.063864 -31.3046875 5.1875 C-29.13833827 4.28386799 -26.97033043 3.38420322 -24.80078125 2.48828125 C-23.71990234 2.02099609 -22.63902344 1.55371094 -21.52539062 1.07226562 C-13.46487766 -2.23699288 -8.1756182 -3.02764148 0 0 Z " fill="#DF1B52" transform="translate(369.23828125,156.19921875)"/>
</svg>
